<svg xmlns="http://www.w3.org/2000/svg" width="157" height="157" viewBox="0 0 157 157">
  <path id="icon_user-circle" d="M78.5.25A78.5,78.5,0,1,0,157,78.75,78.486,78.486,0,0,0,78.5.25Zm0,30.387A27.855,27.855,0,1,1,50.645,58.492,27.855,27.855,0,0,1,78.5,30.637Zm0,108.887a60.656,60.656,0,0,1-46.372-21.587A35.291,35.291,0,0,1,63.306,99.008a7.745,7.745,0,0,1,2.247.348A41.909,41.909,0,0,0,78.5,101.54a41.751,41.751,0,0,0,12.946-2.184,7.745,7.745,0,0,1,2.247-.348,35.291,35.291,0,0,1,31.178,18.929A60.656,60.656,0,0,1,78.5,139.524Z" transform="translate(0 -0.25)" fill="#e8e8e8"/>
</svg>
