<svg xmlns="http://www.w3.org/2000/svg" width="86" height="86" viewBox="0 0 86 86">
  <g id="ico_alert" transform="translate(-48 -48)">
    <path id="패스_144" data-name="패스 144" d="M91,48A43,43,0,1,1,48,91,43.049,43.049,0,0,1,91,48Zm0,79.385A36.385,36.385,0,1,0,54.615,91,36.426,36.426,0,0,0,91,127.385Z" fill="#dbdef1"/>
    <path id="패스_145" data-name="패스 145" d="M238.761,144.05a4.506,4.506,0,0,1,4.5,4.71l-1.188,25.279a3.316,3.316,0,0,1-6.625,0l-1.19-25.274a4.506,4.506,0,0,1,4.458-4.715Z" transform="translate(-147.762 -76.224)" fill="#dbdef1"/>
    <path id="패스_146" data-name="패스 146" d="M240.145,336.2a4.145,4.145,0,1,1,4.145-4.145A4.145,4.145,0,0,1,240.145,336.2Z" transform="translate(-149.145 -222.059)" fill="#dbdef1"/>
  </g>
</svg>
