<svg id="logo" xmlns="http://www.w3.org/2000/svg" xmlns:xlink="http://www.w3.org/1999/xlink" width="146.813" height="40" viewBox="0 0 146.813 40">
  <defs>
    <clipPath id="clip-path">
      <rect id="사각형_100" data-name="사각형 100" width="146.813" height="40" fill="none"/>
    </clipPath>
    <clipPath id="clip-path-3">
      <rect id="사각형_98" data-name="사각형 98" width="17.405" height="6.958" fill="none"/>
    </clipPath>
  </defs>
  <g id="그룹_41" data-name="그룹 41" clip-path="url(#clip-path)">
    <path id="패스_34" data-name="패스 34" d="M0,11.423V36.213H1.936V27.765l9.88,8.448L13.325,34.7,4.072,27.036,11.036,21.3,9.553,19.8,1.936,26.282V11.423Z" transform="translate(0 -4.031)" fill="#040000"/>
    <g id="그룹_40" data-name="그룹 40" transform="translate(0 0)">
      <g id="그룹_39" data-name="그룹 39" clip-path="url(#clip-path)">
        <path id="패스_35" data-name="패스 35" d="M37.254,24.361a7.838,7.838,0,0,1,5.783,2.413,7.921,7.921,0,0,1,2.413,5.807,9.448,9.448,0,0,1-.05.956l-14.355.025.276.856a6.155,6.155,0,0,0,5.934,4.4,6.924,6.924,0,0,0,5.38-2.238l1.635,1.107a8.629,8.629,0,0,1-3.093,2.238,9.631,9.631,0,0,1-3.922.854,8.2,8.2,0,0,1-8.2-8.2,8.2,8.2,0,0,1,8.2-8.221m5.933,6.361a6.189,6.189,0,0,0-2.262-3.168,6.122,6.122,0,0,0-7.367,0,6.05,6.05,0,0,0-2.238,3.168l-.276.88H43.464Z" transform="translate(-10.254 -8.596)" fill="#040000"/>
        <path id="패스_36" data-name="패스 36" d="M72.218,24.361A7.838,7.838,0,0,1,78,26.774a7.921,7.921,0,0,1,2.413,5.807,9.446,9.446,0,0,1-.05.956l-14.355.025.276.856a6.155,6.155,0,0,0,5.934,4.4,6.924,6.924,0,0,0,5.38-2.238l1.635,1.107a8.629,8.629,0,0,1-3.093,2.238,9.631,9.631,0,0,1-3.922.854,8.2,8.2,0,0,1-8.2-8.2,8.2,8.2,0,0,1,8.2-8.221m5.933,6.361a6.189,6.189,0,0,0-2.262-3.168,6.122,6.122,0,0,0-7.367,0,6.05,6.05,0,0,0-2.238,3.168l-.276.88H78.428Z" transform="translate(-22.591 -8.596)" fill="#040000"/>
        <path id="패스_37" data-name="패스 37" d="M107.182,24.4a8.155,8.155,0,0,1,8.2,8.2,8.121,8.121,0,0,1-13.325,6.31l-1.106-.879V48.609H98.987V32.494a8.2,8.2,0,0,1,8.2-8.1m0,14.431a6.258,6.258,0,0,0,4.425-10.66,6.24,6.24,0,1,0-8.824,8.824,6,6,0,0,0,4.4,1.835" transform="translate(-34.929 -8.609)" fill="#040000"/>
        <path id="패스_38" data-name="패스 38" d="M170.908,24.4a6.4,6.4,0,0,1,6.386,6.386V40.791h-1.961V30.785a4.427,4.427,0,0,0-7.567-3.143,4.334,4.334,0,0,0-1.308,3.119V40.791H164.5V30.76a4.463,4.463,0,0,0-4.424-4.425,4.42,4.42,0,0,0-4.425,4.45V40.791h-1.96V30.785a6.4,6.4,0,0,1,11.288-4.123l.5.629.529-.629a6.123,6.123,0,0,1,4.9-2.263" transform="translate(-54.231 -8.609)" fill="#040000"/>
        <g id="그룹_38" data-name="그룹 38" transform="translate(129.407 0)" opacity="0.53">
          <g id="그룹_37" data-name="그룹 37">
            <g id="그룹_36" data-name="그룹 36" clip-path="url(#clip-path-3)">
              <path id="패스_39" data-name="패스 39" d="M199.969,6.958V0h4.8V1.4h-2.878V2.723h2.246V4.09h-2.246V5.56h2.971v1.4Z" transform="translate(-199.969 0)" fill="#231815"/>
              <path id="패스_40" data-name="패스 40" d="M208.465,6.958V0h2.92a3.123,3.123,0,0,1,1.988.527,1.994,1.994,0,0,1,.652,1.646,1.85,1.85,0,0,1-.29,1.092,2,2,0,0,1-.859.657v.041l1.553,2.993H212.4l-1.263-2.537h-.725V6.958Zm1.926-3.707h.735a.967.967,0,0,0,.735-.243,1.049,1.049,0,0,0,.228-.74.961.961,0,0,0-.233-.72,1.079,1.079,0,0,0-.761-.223h-.7Z" transform="translate(-202.967 0)" fill="#231815"/>
              <path id="패스_41" data-name="패스 41" d="M218.145,6.958V0h2.889A3.148,3.148,0,0,1,223.1.579a2.083,2.083,0,0,1,.689,1.688,2.232,2.232,0,0,1-.694,1.776,2.966,2.966,0,0,1-2.009.606h-.994V6.958ZM220.092,3.4h.714a.963.963,0,0,0,.745-.243,1.16,1.16,0,0,0,.217-.782,1.172,1.172,0,0,0-.217-.8.926.926,0,0,0-.7-.234h-.756Z" transform="translate(-206.383 0)" fill="#231815"/>
            </g>
          </g>
        </g>
        <path id="패스_42" data-name="패스 42" d="M213.8,31.405a6.958,6.958,0,0,0-3.482-6.007v1.654a.871.871,0,0,1-1.741,0V24.685a6.335,6.335,0,0,0-3.482,0v2.368a.87.87,0,1,1-1.741,0V25.4a6.958,6.958,0,0,0-3.482,6.007h-.453a.854.854,0,0,0-.853.853v.052a.851.851,0,0,0,.853.836h14.852a.855.855,0,0,0,.853-.854v-.035a.855.855,0,0,0-.853-.853Z" transform="translate(-70.067 -8.624)" fill="#f7c843"/>
        <path id="패스_43" data-name="패스 43" d="M214.44,29.066a.156.156,0,0,0,0-.017,8.611,8.611,0,0,0-4.186-6l-.388-.228a8.562,8.562,0,0,0-2.133-.763c-.115-.025-.236-.032-.353-.052-.21-.038-.434-.074-.676-.1a7.3,7.3,0,0,0-.78-.046,7.175,7.175,0,0,0-.8.049l-.14.014c-.163.018-.323.047-.483.074-.128.021-.257.039-.384.067a8.561,8.561,0,0,0-2.232.815l-.289.17a9.015,9.015,0,0,0-1.519,1.124l-.061.056c-.184.171-.355.353-.522.538-.051.058-.106.113-.156.172-.109.127-.207.263-.307.4a8.615,8.615,0,0,0-1.6,3.681l-.028.063a2.53,2.53,0,0,0-1.422,2.272V31.4a2.515,2.515,0,0,0,1.992,2.449,2.552,2.552,0,0,0,.535.059h14.852a2.539,2.539,0,0,0,2.526-2.526,2.555,2.555,0,0,0-1.441-2.315m-1.085,3.168H198.5a.851.851,0,0,1-.854-.835v-.052a.855.855,0,0,1,.854-.854h.452a6.959,6.959,0,0,1,3.482-6.007v1.654a.871.871,0,0,0,1.741,0V23.773a6.335,6.335,0,0,1,3.482,0v2.368a.87.87,0,0,0,1.741,0V24.487a6.959,6.959,0,0,1,3.483,6.007h.47a.854.854,0,0,1,.853.854v.035a.854.854,0,0,1-.853.853" transform="translate(-69.153 -7.712)" fill="#040000"/>
        <path id="패스_44" data-name="패스 44" d="M212.7,43.242a6.925,6.925,0,0,1-5.38,2.238h-.15a6.93,6.93,0,0,1-5.381-2.238l-1.633,1.106a8.626,8.626,0,0,0,3.093,2.238c.144.065.29.124.438.182s.293.111.441.161.294.1.443.139.3.082.445.117.3.067.445.1.3.052.447.073.3.038.448.05c.039,0,.08.007.118.01l.122.008.239.012c.162.005.324.006.485.006.137,0,.275,0,.413-.01s.3-.017.449-.031.3-.032.449-.054.3-.047.447-.075.3-.061.446-.1.3-.076.445-.12.3-.091.443-.142.3-.106.441-.164.26-.106.388-.162a8.629,8.629,0,0,0,3.093-2.238L212.7,43.242" transform="translate(-70.629 -15.258)" fill="#040000"/>
      </g>
    </g>
  </g>
</svg>
