<svg xmlns="http://www.w3.org/2000/svg" width="40" height="40" viewBox="0 0 40 40">
  <g id="ico_warning" transform="translate(-607.771 -175)">
    <circle id="타원_1" data-name="타원 1" cx="20" cy="20" r="20" transform="translate(607.771 175)" fill="#fff"/>
    <path id="alarm-warning-fill" d="M3.929,18.92V13.28a7.52,7.52,0,0,1,15.04,0v5.64h.94V20.8H2.989V18.92Zm1.88-5.64h1.88a3.76,3.76,0,0,1,3.76-3.76V7.64A5.64,5.64,0,0,0,5.809,13.28ZM10.509,2h1.88V4.82h-1.88Zm8.251,2.639L20.09,5.969,18.1,7.963,16.767,6.633ZM2.809,5.969,4.138,4.639,6.132,6.633,4.8,7.963Z" transform="translate(616.435 183.34)" fill="#F26363"/>
  </g>
</svg>
