<svg xmlns="http://www.w3.org/2000/svg" width="40" height="40" viewBox="0 0 40 40">
  <g id="ico_loader" transform="translate(-1020 -391)">
    <circle id="타원_1" data-name="타원 1" cx="20" cy="20" r="20" transform="translate(1020 391)" fill="#F4F7FE"/>
    <path id="loader-fill" d="M12,2a1,1,0,0,1,1,1V6a1,1,0,0,1-2,0V3A1,1,0,0,1,12,2Zm0,15a1,1,0,0,1,1,1v3a1,1,0,0,1-2,0V18A1,1,0,0,1,12,17ZM20.66,7a1,1,0,0,1-.366,1.366l-2.6,1.5a1,1,0,0,1-1-1.732l2.6-1.5A1,1,0,0,1,20.66,7ZM7.669,14.5A1,1,0,0,1,7.3,15.866l-2.6,1.5a1,1,0,1,1-1-1.732l2.6-1.5A1,1,0,0,1,7.669,14.5ZM20.66,17a1,1,0,0,1-1.366.366l-2.6-1.5a1,1,0,1,1,1-1.732l2.6,1.5A1,1,0,0,1,20.66,17ZM7.669,9.5A1,1,0,0,1,6.3,9.866l-2.6-1.5a1,1,0,1,1,1-1.732l2.6,1.5A1,1,0,0,1,7.669,9.5Z" transform="translate(1028 399)" fill="#3C47DD"/>
  </g>
</svg>
