<svg xmlns="http://www.w3.org/2000/svg" width="40" height="40" viewBox="0 0 40 40">
  <g id="ico_surroundWorker" transform="translate(10421.531 -4459)">
    <circle id="타원_1" data-name="타원 1" cx="20" cy="20" r="20" transform="translate(-10421.531 4459)" fill="#F4F7FE"/>
    <path id="user-forbid-line" d="M7.42,6.129a3.42,3.42,0,1,1,3.42,3.42A3.42,3.42,0,0,1,7.42,6.129ZM10.839,1a5.129,5.129,0,1,0,5.129,5.129A5.129,5.129,0,0,0,10.839,1ZM13.4,15.533a2.566,2.566,0,0,1,3.67-2.315l-3.42,3.42A2.555,2.555,0,0,1,13.4,15.533Zm1.459,2.315,3.42-3.42a2.566,2.566,0,0,1-3.42,3.42Zm1.106-6.589a4.274,4.274,0,1,0,4.274,4.274A4.274,4.274,0,0,0,15.968,11.259Zm-5.129.855q.108,0,.215,0a5.958,5.958,0,0,0-.833,1.743A5.13,5.13,0,0,0,5.71,18.953H4A6.839,6.839,0,0,1,10.839,12.114Z" transform="translate(-10413.887 4468.831)" fill="#3C47DD"/>
  </g>
</svg>
