<svg xmlns="http://www.w3.org/2000/svg" width="40" height="40" viewBox="0 0 40 40">
  <g id="ico_COwarning_red" transform="translate(10360.672 -4461)">
    <circle id="타원_1" data-name="타원 1" cx="20" cy="20" r="20" transform="translate(-10360.672 4461)" fill="#f47a7a1a"/>
    <path id="windy-line" d="M10.947,17.788H4.105V15.683h6.841A3.684,3.684,0,1,1,7.5,20.661l1.972-.739a1.579,1.579,0,1,0,1.479-2.133ZM5.158,11.473H19.367a3.684,3.684,0,1,1-3.45,4.978l1.972-.739a1.579,1.579,0,1,0,1.479-2.133H5.158a3.158,3.158,0,1,1,0-6.315H14.1a1.579,1.579,0,1,0-1.479-2.133L10.654,4.39A3.684,3.684,0,1,1,14.1,9.368H5.158a1.053,1.053,0,1,0,0,2.105Z" transform="translate(-10353.321 4468.679)" fill="#F26363"/>
  </g>
</svg>
