<svg xmlns="http://www.w3.org/2000/svg" width="40" height="40" viewBox="0 0 40 40">
  <g id="ico_userNormal" transform="translate(-992.417 -157)">
    <circle id="타원_1" data-name="타원 1" cx="20" cy="20" r="20" transform="translate(992.417 157)" fill="#F4F7FE"/>
    <g id="icon_user_check" transform="translate(992.417 157)">
      <rect id="사각형_50" data-name="사각형 50" width="40" height="40" fill="none"/>
      <g id="Icon_feather-user-check" data-name="Icon feather-user-check" transform="translate(13.472 12.51)">
        <path id="패스_52" data-name="패스 52" d="M14.148,19.043V17.278A3.528,3.528,0,0,0,10.62,13.75H4.445A3.528,3.528,0,0,0,.917,17.278v1.764" transform="translate(-0.917 -3.165)" fill="none" stroke="#3C47DD" stroke-linecap="round" stroke-linejoin="round" stroke-width="1.833"/>
        <path id="패스_53" data-name="패스 53" d="M11.182,6.278A3.528,3.528,0,1,1,7.653,2.75a3.528,3.528,0,0,1,3.528,3.528Z" transform="translate(-1.038 -2.75)" fill="none" stroke="#3C47DD" stroke-linecap="round" stroke-linejoin="round" stroke-width="1.833"/>
        <path id="패스_54" data-name="패스 54" d="M15.583,10.014l1.764,1.764L20.876,8.25" transform="translate(-1.47 -2.957)" fill="none" stroke="#3C47DD" stroke-linecap="round" stroke-linejoin="round" stroke-width="1.833"/>
      </g>
    </g>
  </g>
</svg>
