<svg xmlns="http://www.w3.org/2000/svg" width="40" height="40" viewBox="0 0 40 40">
  <g id="ico_warning" transform="translate(-1833.153 -174)">
    <circle id="타원_1" data-name="타원 1" cx="20" cy="20" r="20" transform="translate(1833.153 174)" fill="#f47a7a1a"/>
    <g id="icon_user_warning" transform="translate(1833.153 174)">
      <rect id="사각형_53" data-name="사각형 53" width="40" height="40" fill="none"/>
      <g id="Icon_feather-user-minus" data-name="Icon feather-user-minus" transform="translate(13.384 12.428)">
        <path id="패스_55" data-name="패스 55" d="M14.062,19.008V17.255a3.505,3.505,0,0,0-3.505-3.505H4.422A3.505,3.505,0,0,0,.917,17.255v1.753" transform="translate(-0.917 -3.234)" fill="none" stroke="#F26363" stroke-linecap="round" stroke-linejoin="round" stroke-width="1.833"/>
        <path id="패스_56" data-name="패스 56" d="M11.136,6.255A3.505,3.505,0,1,1,7.63,2.75a3.505,3.505,0,0,1,3.505,3.505Z" transform="translate(-1.058 -2.75)" fill="none" stroke="#F26363" stroke-linecap="round" stroke-linejoin="round" stroke-width="1.833"/>
        <path id="패스_57" data-name="패스 57" d="M15.583,10.083h0" transform="translate(0.191 -1.16)" fill="none" stroke="#F26363" stroke-linecap="round" stroke-linejoin="round" stroke-width="1.833"/>
        <path id="패스_60" data-name="패스 60" d="M3.336,0H0" transform="translate(15.774 2.47) rotate(90)" fill="none" stroke="#F26363" stroke-linecap="round" stroke-linejoin="round" stroke-width="1.833"/>
      </g>
    </g>
  </g>
</svg>
