<svg xmlns="http://www.w3.org/2000/svg" width="40" height="40" viewBox="0 0 40 40">
  <g id="ico_deviceCharge" transform="translate(-750 -391)">
    <circle id="타원_1" data-name="타원 1" cx="20" cy="20" r="20" transform="translate(750 391)" fill="#F4F7FE"/>
    <g id="그룹_319" data-name="그룹 319" transform="translate(0 -0.005)">
      <path id="apple-watch" d="M16.5,5.03q0,.072,0,.143A3,3,0,0,1,18.5,8V9h1v4h-1v3a3,3,0,0,1-2,2.831q0,.084,0,.169a3,3,0,0,1-3,3h-4a3,3,0,0,1-3-3q0-.085,0-.169A3,3,0,0,1,4.5,16V8a3,3,0,0,1,2-2.83Q6.5,5.078,6.5,4.98A3,3,0,0,1,9.513,2l4,.02A3,3,0,0,1,16.5,5.03ZM8.5,5h6a1,1,0,0,0-1-.99L9.5,4a1,1,0,0,0-1,1ZM15.7,7.026,11.485,7H7.5a1,1,0,0,0-1,1v8a1,1,0,0,0,1,1h8a1,1,0,0,0,1-1V8A1,1,0,0,0,15.7,7.026ZM8.5,19a1,1,0,0,0,1,1h4a1,1,0,0,0,1-1Z" transform="translate(758 399.005)" fill="#3C47DD" fill-rule="evenodd"/>
    </g>
  </g>
</svg>
