<?xml version="1.0" encoding="UTF-8"?><svg id="Layer_1" xmlns="http://www.w3.org/2000/svg" viewBox="0 0 280 280"><defs><style>.cls-1{fill:#e6c705;}</style></defs><circle class="cls-1" cx="140" cy="140" r="52.34" transform="translate(-23.85 28.85) rotate(-10.85)"/><path class="cls-1" d="M134.43,63.98c0,3.08,2.49,5.57,5.57,5.57s5.57-2.49,5.57-5.57v-23.59c0-3.08-2.49-5.57-5.57-5.57s-5.57,2.49-5.57,5.57v23.59Z"/><path class="cls-1" d="M134.43,216.02v23.59c0,3.08,2.49,5.57,5.57,5.57s5.57-2.49,5.57-5.57v-23.59c0-3.08-2.49-5.57-5.57-5.57s-5.57,2.49-5.57,5.57Z"/><path class="cls-1" d="M101.99,79.73c.94,0,1.9-.24,2.78-.75,2.66-1.54,3.58-4.94,2.04-7.61l-11.8-20.43c-1.54-2.66-4.95-3.58-7.61-2.04-2.66,1.54-3.58,4.94-2.04,7.61l11.8,20.43c1.03,1.79,2.9,2.79,4.83,2.79Z"/><path class="cls-1" d="M175.23,201.01c-2.66,1.54-3.58,4.94-2.04,7.61l11.8,20.43c1.03,1.79,2.9,2.79,4.83,2.79,.94,0,1.9-.24,2.78-.75,2.66-1.54,3.58-4.94,2.04-7.61l-11.8-20.43c-1.54-2.66-4.94-3.58-7.61-2.04Z"/><path class="cls-1" d="M48.9,87.41c-1.54,2.66-.62,6.07,2.04,7.61l20.43,11.8c.88,.51,1.83,.75,2.78,.75,1.92,0,3.8-1,4.83-2.79,1.54-2.66,.62-6.07-2.04-7.61l-20.43-11.8c-2.66-1.54-6.07-.63-7.61,2.04Z"/><path class="cls-1" d="M229.06,184.99l-20.43-11.8c-2.66-1.54-6.07-.63-7.61,2.04-1.54,2.66-.62,6.07,2.04,7.61l20.43,11.8c.88,.51,1.83,.75,2.78,.75,1.92,0,3.8-1,4.83-2.79,1.54-2.66,.62-6.07-2.04-7.61Z"/><path class="cls-1" d="M69.55,140c0-3.08-2.49-5.57-5.57-5.57h-23.59c-3.08,0-5.57,2.49-5.57,5.57s2.49,5.57,5.57,5.57h23.59c3.08,0,5.57-2.49,5.57-5.57Z"/><path class="cls-1" d="M239.62,134.43h-23.59c-3.08,0-5.57,2.49-5.57,5.57s2.49,5.57,5.57,5.57h23.59c3.08,0,5.57-2.49,5.57-5.57s-2.49-5.57-5.57-5.57Z"/><path class="cls-1" d="M71.38,173.19l-20.43,11.8c-2.66,1.54-3.58,4.94-2.04,7.61,1.03,1.79,2.9,2.79,4.83,2.79,.94,0,1.9-.24,2.78-.75l20.43-11.8c2.66-1.54,3.58-4.94,2.04-7.61-1.54-2.66-4.95-3.58-7.61-2.04Z"/><path class="cls-1" d="M223.49,85.37l-20.43,11.8c-2.66,1.54-3.58,4.94-2.04,7.61,1.03,1.79,2.9,2.79,4.83,2.79,.95,0,1.9-.24,2.78-.75l20.43-11.8c2.66-1.54,3.58-4.94,2.04-7.61-1.54-2.66-4.95-3.58-7.61-2.04Z"/><path class="cls-1" d="M97.16,203.05l-11.8,20.43c-1.54,2.66-.62,6.07,2.04,7.61,.88,.51,1.83,.75,2.78,.75,1.92,0,3.8-1,4.83-2.79l11.8-20.43c1.54-2.66,.63-6.07-2.04-7.61-2.66-1.54-6.07-.63-7.61,2.04Z"/><path class="cls-1" d="M175.23,78.98c.88,.51,1.83,.75,2.78,.75,1.92,0,3.8-1,4.83-2.79l11.8-20.43c1.54-2.66,.63-6.07-2.04-7.61-2.66-1.54-6.07-.63-7.61,2.04l-11.8,20.43c-1.54,2.66-.63,6.07,2.04,7.61Z"/></svg>