<?xml version="1.0" encoding="UTF-8"?><svg id="Layer_1" xmlns="http://www.w3.org/2000/svg" viewBox="0 0 280 280"><defs><style>.cls-1{fill:#fff;stroke:#bcbcbc;stroke-miterlimit:10;stroke-width:2px;}.cls-2{fill:#e6c705;}.cls-3{fill:#44c2e4;}</style></defs><path class="cls-2" d="M66.5,100.14c0,6.96,2.57,13.52,7.15,18.58,4.75-3.57,10.16-6.24,15.91-7.79,2-12.71,8.25-24.37,17.84-33.13,.45-.41,.91-.81,1.37-1.21-4.33-2.69-9.34-4.14-14.58-4.14-15.27,0-27.7,12.42-27.7,27.7Z"/><path class="cls-1" d="M241.28,127.71c-.95-.72-1.64-1.74-1.98-2.88-5.09-17.6-21.46-29.9-39.81-29.9-3.38,0-6.75,.41-10.01,1.22-2.25,.56-4.61-.34-5.93-2.25-8.56-12.44-22.67-19.86-37.75-19.86-11.46,0-22.43,4.26-30.88,11.98-8.4,7.68-13.62,18.12-14.7,29.4-.19,1.95-1.38,3.66-3.15,4.5-.55,.26-1.11,.55-1.65,.85-.46,.26-.96,.45-1.48,.56-7.73,1.72-14.75,6.07-19.77,12.23-5.16,6.33-7.88,14-7.88,22.16,0,19.44,15.9,35.25,35.45,35.25h118.01c19.55,0,35.45-15.81,35.45-35.25,0-11.06-5.07-21.27-13.92-28Z"/><path class="cls-3" d="M117.45,249.25c.54,0,1.09-.08,1.63-.25,2.94-.9,4.59-4.02,3.69-6.96l-6.71-21.88c-.9-2.94-4.02-4.59-6.96-3.69-2.94,.9-4.59,4.02-3.69,6.96l6.71,21.88c.73,2.4,2.94,3.94,5.32,3.94Z"/><path class="cls-3" d="M164.09,249.25c.54,0,1.09-.08,1.63-.25,2.94-.9,4.59-4.02,3.69-6.96l-6.71-21.88c-.9-2.94-4.02-4.59-6.96-3.69-2.94,.9-4.59,4.02-3.69,6.96l6.71,21.88c.73,2.4,2.94,3.94,5.32,3.94Z"/><path class="cls-3" d="M210.73,249.25c.54,0,1.09-.08,1.63-.25,2.94-.9,4.59-4.02,3.69-6.96l-6.71-21.88c-.9-2.94-4.02-4.59-6.96-3.69-2.94,.9-4.59,4.02-3.69,6.96l6.71,21.88c.73,2.4,2.94,3.94,5.32,3.94Z"/><path class="cls-2" d="M88.63,36.32v15.67c0,3.08,2.49,5.57,5.57,5.57s5.57-2.49,5.57-5.57v-15.67c0-3.08-2.49-5.57-5.57-5.57s-5.57,2.49-5.57,5.57Z"/><path class="cls-2" d="M70.13,64.01c.94,0,1.9-.24,2.78-.75,2.66-1.54,3.58-4.94,2.04-7.61l-7.84-13.57c-1.54-2.66-4.94-3.58-7.61-2.04-2.66,1.54-3.58,4.94-2.04,7.61l7.84,13.57c1.03,1.79,2.9,2.79,4.83,2.79Z"/><path class="cls-2" d="M55.28,71.24l-13.57-7.84c-2.66-1.54-6.07-.63-7.61,2.04-1.54,2.66-.63,6.07,2.04,7.61l13.57,7.84c.88,.51,1.83,.75,2.78,.75,1.92,0,3.8-1,4.83-2.79,1.54-2.66,.63-6.07-2.04-7.61Z"/><path class="cls-2" d="M51.61,100.14c0-3.08-2.49-5.57-5.57-5.57h-15.67c-3.08,0-5.57,2.49-5.57,5.57s2.49,5.57,5.57,5.57h15.67c3.08,0,5.57-2.49,5.57-5.57Z"/><path class="cls-2" d="M55.28,129.04c2.66-1.54,3.58-4.94,2.04-7.61-1.54-2.66-4.94-3.58-7.61-2.04l-13.57,7.84c-2.66,1.54-3.58,4.94-2.04,7.61,1.03,1.79,2.9,2.79,4.83,2.79,.94,0,1.9-.24,2.78-.75l13.57-7.84Z"/><path class="cls-2" d="M115.49,63.27c.88,.51,1.83,.75,2.78,.75,1.92,0,3.8-1,4.83-2.79l7.84-13.57c1.54-2.66,.63-6.07-2.04-7.61-2.66-1.54-6.07-.63-7.61,2.04l-7.84,13.57c-1.54,2.66-.62,6.07,2.04,7.61Z"/></svg>