<?xml version="1.0" encoding="UTF-8"?><svg id="Layer_1" xmlns="http://www.w3.org/2000/svg" viewBox="0 0 280 280"><defs><style>.cls-1{fill:#fff;stroke:#bcbcbc;stroke-miterlimit:10;stroke-width:2px;}.cls-2{fill:#44c2e4;}</style></defs><path class="cls-1" d="M234.45,124.69c0-11.06-5.07-21.27-13.92-28-.95-.72-1.64-1.74-1.98-2.88-5.09-17.6-21.46-29.9-39.81-29.9-3.38,0-6.75,.41-10.01,1.22-2.25,.56-4.61-.34-5.93-2.25-8.56-12.44-22.67-19.86-37.75-19.86-11.46,0-22.43,4.26-30.88,11.98-8.4,7.68-13.62,18.12-14.7,29.39-.19,1.95-1.38,3.66-3.15,4.5-.55,.26-1.11,.55-1.65,.85-.46,.26-.96,.45-1.48,.56-7.73,1.72-14.75,6.07-19.77,12.23-5.16,6.33-7.88,14-7.88,22.16,0,19.44,15.9,35.25,35.45,35.25h118.01c19.55,0,35.45-15.81,35.45-35.25Z"/><path class="cls-2" d="M95.55,210.6c.54,0,1.09-.08,1.63-.25,2.94-.9,4.59-4.02,3.69-6.96l-6.71-21.88c-.9-2.94-4.02-4.59-6.96-3.69-2.94,.9-4.59,4.02-3.69,6.96l6.71,21.88c.73,2.4,2.94,3.94,5.32,3.94Z"/><path class="cls-2" d="M126.11,236.99c.54,0,1.09-.08,1.63-.25,2.94-.9,4.59-4.02,3.69-6.96l-6.71-21.88c-.9-2.94-4.02-4.59-6.96-3.69-2.94,.9-4.59,4.02-3.69,6.96l6.71,21.88c.73,2.4,2.94,3.94,5.32,3.94Z"/><path class="cls-2" d="M164.97,202.81c-2.94,.9-4.59,4.02-3.69,6.96l6.71,21.88c.73,2.4,2.94,3.94,5.32,3.94,.54,0,1.09-.08,1.63-.25,2.94-.9,4.59-4.02,3.69-6.96l-6.71-21.88c-.9-2.94-4.02-4.6-6.96-3.69Z"/><path class="cls-2" d="M142.19,210.6c.54,0,1.09-.08,1.63-.25,2.94-.9,4.59-4.02,3.69-6.96l-6.71-21.88c-.9-2.94-4.02-4.59-6.96-3.69-2.94,.9-4.59,4.02-3.69,6.96l6.71,21.88c.73,2.4,2.94,3.94,5.32,3.94Z"/><path class="cls-2" d="M188.83,210.6c.54,0,1.09-.08,1.63-.25,2.94-.9,4.59-4.02,3.69-6.96l-6.71-21.88c-.9-2.94-4.02-4.59-6.96-3.69-2.94,.9-4.59,4.02-3.69,6.96l6.71,21.88c.73,2.4,2.94,3.94,5.32,3.94Z"/></svg>