<?xml version="1.0" encoding="UTF-8"?><svg id="Layer_1" xmlns="http://www.w3.org/2000/svg" viewBox="0 0 280 280"><defs><style>.cls-1{fill:#fff;stroke:#bcbcbc;stroke-miterlimit:10;stroke-width:2px;}.cls-2{fill:#44c2e4;}</style></defs><path class="cls-1" d="M219.57,97.53c-.95-.72-1.64-1.74-1.98-2.88-5.09-17.6-21.46-29.9-39.81-29.9-3.38,0-6.75,.41-10.01,1.22-2.25,.56-4.61-.34-5.93-2.25-8.56-12.44-22.67-19.86-37.75-19.86-11.46,0-22.43,4.26-30.88,11.98-8.4,7.68-13.62,18.12-14.7,29.4-.19,1.95-1.38,3.66-3.15,4.5-.55,.26-1.11,.55-1.65,.85-.46,.26-.96,.45-1.48,.56-7.73,1.72-14.75,6.07-19.77,12.23-5.16,6.33-7.88,14-7.88,22.16,0,19.44,15.9,35.25,35.45,35.25h118.01c19.55,0,35.45-15.81,35.45-35.25,0-11.06-5.07-21.27-13.92-28Z"/><path class="cls-2" d="M218.08,184.78c0-3.08-2.49-5.57-5.57-5.57H66.24c-3.08,0-5.57,2.49-5.57,5.57s2.49,5.57,5.57,5.57H212.51c3.08,0,5.57-2.49,5.57-5.57Z"/><path class="cls-2" d="M204.46,225.01H58.18c-3.08,0-5.57,2.49-5.57,5.57s2.49,5.57,5.57,5.57H204.46c3.08,0,5.57-2.49,5.57-5.57s-2.49-5.57-5.57-5.57Z"/><path class="cls-2" d="M91.3,202.42c-3.08,0-5.57,2.49-5.57,5.57s2.49,5.57,5.57,5.57h53.61c3.08,0,5.57-2.49,5.57-5.57s-2.49-5.57-5.57-5.57h-53.61Z"/><path class="cls-2" d="M229.84,202.42h-53.61c-3.08,0-5.57,2.49-5.57,5.57s2.49,5.57,5.57,5.57h53.61c3.08,0,5.57-2.49,5.57-5.57s-2.49-5.57-5.57-5.57Z"/></svg>