<?xml version="1.0" encoding="UTF-8"?><svg id="Layer_1" xmlns="http://www.w3.org/2000/svg" viewBox="0 0 280 280"><defs><style>.cls-1{fill:#fff;stroke:#bcbcbc;stroke-miterlimit:10;stroke-width:2px;}</style></defs><path class="cls-1" d="M81,174.28h118.01c19.55,0,35.45-15.81,35.45-35.25,0-11.06-5.07-21.27-13.92-28-.95-.72-1.64-1.74-1.98-2.88-5.09-17.6-21.46-29.9-39.81-29.9-3.38,0-6.75,.41-10.01,1.22-2.25,.56-4.61-.34-5.93-2.25-8.56-12.44-22.67-19.86-37.75-19.86-11.46,0-22.43,4.26-30.88,11.98-8.4,7.68-13.62,18.12-14.7,29.39-.19,1.95-1.38,3.66-3.15,4.5-.55,.26-1.11,.55-1.65,.85-.46,.26-.96,.45-1.48,.56-7.73,1.72-14.75,6.07-19.77,12.23-5.16,6.33-7.88,14-7.88,22.16,0,19.44,15.9,35.25,35.45,35.25Z"/><path class="cls-1" d="M81.54,197.49c-6.95,0-12.58,5.63-12.58,12.58s5.63,12.58,12.58,12.58,12.58-5.63,12.58-12.58-5.63-12.58-12.58-12.58Z"/><circle class="cls-1" cx="139.27" cy="210.07" r="12.58"/><circle class="cls-1" cx="193.82" cy="210.07" r="12.58"/></svg>