<?xml version="1.0" encoding="UTF-8"?><svg id="Layer_1" xmlns="http://www.w3.org/2000/svg" viewBox="0 0 280 280"><defs><style>.cls-1{fill:#e6c705;}</style></defs><path class="cls-1" d="M140,136.3c-31.59,0-57.63,24.26-60.45,55.13h120.9c-2.82-30.87-28.85-55.13-60.45-55.13Z"/><path class="cls-1" d="M134.43,83v27c0,3.08,2.49,5.57,5.57,5.57s5.57-2.49,5.57-5.57v-27c0-3.08-2.49-5.57-5.57-5.57s-5.57,2.49-5.57,5.57Z"/><path class="cls-1" d="M80.21,93.45c-2.66,1.54-3.58,4.94-2.04,7.61l13.5,23.38c1.03,1.79,2.9,2.79,4.83,2.79,.94,0,1.9-.24,2.78-.75,2.66-1.54,3.58-4.94,2.04-7.61l-13.5-23.38c-1.54-2.66-4.94-3.58-7.61-2.04Z"/><path class="cls-1" d="M67.44,148.68l-23.38-13.5c-2.66-1.54-6.07-.62-7.61,2.04-1.54,2.66-.63,6.07,2.04,7.61l23.38,13.5c.88,.51,1.83,.75,2.78,.75,1.92,0,3.8-1,4.83-2.79,1.54-2.66,.62-6.07-2.04-7.61Z"/><path class="cls-1" d="M58.57,197c0-3.08-2.49-5.57-5.57-5.57H25.99c-3.08,0-5.57,2.49-5.57,5.57s2.49,5.57,5.57,5.57h27c3.08,0,5.57-2.49,5.57-5.57Z"/><path class="cls-1" d="M254.01,191.43h-27c-3.08,0-5.57,2.49-5.57,5.57s2.49,5.57,5.57,5.57h27c3.08,0,5.57-2.49,5.57-5.57s-2.49-5.57-5.57-5.57Z"/><path class="cls-1" d="M218.13,158.32l23.38-13.5c2.66-1.54,3.58-4.94,2.04-7.61-1.54-2.66-4.95-3.58-7.61-2.04l-23.38,13.5c-2.66,1.54-3.58,4.94-2.04,7.61,1.03,1.79,2.9,2.79,4.83,2.79,.95,0,1.9-.24,2.78-.75Z"/><path class="cls-1" d="M180.72,126.48c.88,.51,1.83,.75,2.78,.75,1.92,0,3.8-1,4.83-2.79l13.5-23.38c1.54-2.66,.63-6.07-2.04-7.61-2.66-1.54-6.07-.63-7.61,2.04l-13.5,23.38c-1.54,2.66-.63,6.07,2.04,7.61Z"/></svg>